<svg width="301" height="300" viewBox="0 0 301 300" fill="none" xmlns="http://www.w3.org/2000/svg">
<path d="M300.992 149.787C300.987 147.632 300.937 145.487 300.837 143.352V21.6008L267.167 55.2599C239.612 21.5356 197.684 0 150.731 0C101.861 0 58.4488 23.3148 31.004 59.4246L86.1946 115.181C91.599 105.201 99.2536 96.6152 108.553 90.1017C118.189 82.5891 131.844 76.4396 150.726 76.4396C153.008 76.4396 154.769 76.7103 156.063 77.2114C179.465 79.0558 199.746 91.9661 211.69 110.7L172.622 149.757C222.104 149.561 278.007 149.446 300.987 149.782" fill="#2A1FFF"/>
<path d="M149.853 0.00515149C147.691 0.015175 145.549 0.0652928 143.412 0.160517H21.6135L55.2887 33.8196C21.5533 61.3694 0.0078125 103.273 0.0078125 150.213C0.0078125 199.063 23.3341 242.465 59.4573 269.894L115.23 214.725C105.246 209.323 96.658 201.671 90.1478 192.377C82.6282 182.745 76.478 169.098 76.478 150.218C76.478 147.938 76.7439 146.174 77.2456 144.881C79.0966 121.491 92.0089 101.218 110.75 89.2799L149.818 128.332C149.622 78.8655 149.507 22.9842 149.843 0.0101633" fill="#77C2FF"/>
<path d="M0.0126193 150.213C0.0226522 152.368 0.0728163 154.513 0.168128 156.648V278.399L33.8383 244.74C61.3985 278.464 103.321 300 150.279 300C199.144 300 242.556 276.685 270.001 240.575L214.81 184.819C209.403 194.823 201.718 203.408 192.452 209.898C182.816 217.411 169.166 223.56 150.279 223.56C147.997 223.56 146.236 223.29 144.942 222.789C121.545 220.944 101.259 208.034 89.3198 189.3L128.388 150.243C78.9007 150.439 23.0028 150.554 0.0176357 150.218" fill="#CDDDFF"/>
</svg>
