<svg width="86" height="86" viewBox="0 0 86 86" fill="none" xmlns="http://www.w3.org/2000/svg">
  <circle cx="43" cy="43" r="43" fill="#A78000"/>
  <circle cx="43" cy="43" r="39" fill="#F9C61F"/>
  <path d="M66 42C66 55.8071 55.7025 67 43 67C30.2975 67 20 55.8071 20 42C20 28.1929 30.2975 19 43 19C55.7025 19 66 28.1929 66 42Z" fill="#A78000"/>
  <path d="M31 61L57 61V65.4203C57 65.4203 49.4777 66.954 44.5 66.9989C39.1388 67.0473 31 65.4203 31 65.4203V61Z" fill="#A78000"/>
  <path d="M43 14L48.1962 23.75H37.8038L43 14Z" fill="#A78000"/>
  <path d="M48 16L54.0622 25H41.9378L48 16Z" fill="#A78000"/>
  <path d="M47.5 43.384C49.5867 44.2577 49.0416 46.8675 51 48C52.3939 48.806 53 48 55 49C56.3972 49.6986 56.401 50.9902 56 52.5C54.6843 57.4536 43.5 57 43.5 57C43.5 57 32.5 56.5 30.5 52.5C29.976 51.4521 29.9937 50.5565 30.5 49.5C31.3609 47.7035 33.6476 48.9912 35.3756 48C37.5511 46.7522 37.5975 44.5061 39.8404 43.384C42.8648 41.871 43 41.5 47.5 43.384Z" fill="#F9C61F"/>
  <path d="M40 36L31 41.1962V30.8038L40 36Z" fill="#F9C61F"/>
  <path d="M37 36L28 41.1962V30.8038L37 36Z" fill="#A78000"/>
  <path d="M49.7482 31H50.5396L51.0431 34.2947L54.7096 33.9399L55 34.6748L51.4735 35.7646L52.9137 39.8195L52.6259 40L49.9917 36.8797L47.8776 40L47.3741 39.8195L48.5916 35.7646L45 34.6748L45.5035 33.9399L49.1424 34.2947L49.7482 31Z" fill="#F9C61F"/>
  <path d="M51.1962 24.5C50.6962 23.5 51.1961 23 52.1962 23C53.1962 23 55.4052 24.701 56.4052 25.4654C57.4052 26.2299 57.7819 26.5 59.1962 28.5C60.6104 30.5 57.6962 30.5 57.1962 29.5C56.6962 28.5 56.2248 27.9615 55.1962 27C53.9203 25.8074 51.6962 25.5 51.1962 24.5Z" fill="#F9C61F"/>
</svg>
