<svg width="86" height="86" viewBox="0 0 86 86" fill="none" xmlns="http://www.w3.org/2000/svg">
<circle cx="43" cy="43" r="43" fill="#A78000"/>
<circle cx="43" cy="43" r="39" fill="#F9C61F"/>
<ellipse cx="43.5" cy="43" rx="28.5" ry="19" fill="#A78000"/>
<rect x="32.2455" y="59" width="2.65343" height="11.1444" fill="#A78000"/>
<rect x="32.2455" y="64.591" width="2.65343" height="6.89891" transform="rotate(-45 32.2455 64.591)" fill="#A78000"/>
<rect x="29.8763" y="69.4693" width="2.65343" height="6.89891" transform="rotate(-135 29.8763 69.4693)" fill="#A78000"/>
<rect x="49.2455" y="59" width="2.65343" height="11.1444" fill="#A78000"/>
<rect x="49.2455" y="64.591" width="2.65343" height="6.89891" transform="rotate(-45 49.2455 64.591)" fill="#A78000"/>
<rect x="46.8763" y="69.4693" width="2.65343" height="6.89891" transform="rotate(-135 46.8763 69.4693)" fill="#A78000"/>
<path d="M39.5 16L49.4593 28.75H29.5407L39.5 16Z" fill="#A78000"/>
<path d="M46.5 18L56.4593 30.75H36.5407L46.5 18Z" fill="#A78000"/>
<path d="M42.7482 32H43.5396L44.0431 35.2947L47.7096 34.9399L48 35.6748L44.4735 36.7646L45.9137 40.8195L45.6259 41L42.9917 37.8797L40.8776 41L40.3741 40.8195L41.5916 36.7646L38 35.6748L38.5035 34.9399L42.1424 35.2947L42.7482 32Z" fill="#F9C61F"/>
 <text transform="translate(15 47)" style="font-size: 8px;fill: #b96b00;font-family: Roboto-Bold, Roboto;font-weight: 700;letter-spacing: 0.1em">TAILS</text>
  <text transform="translate(16 48)" style="font-size: 8px;fill: #ffea94;font-family: Roboto-Bold, Roboto;font-weight: 700;letter-spacing: 0.1em">TAILS</text>
</svg>
